<?xml version="1.0" encoding="utf-8"?>
<!-- Generator: Adobe Illustrator 15.0.0, SVG Export Plug-In . SVG Version: 6.00 Build 0)  -->
<!DOCTYPE svg PUBLIC "-//W3C//DTD SVG 1.1//EN" "http://www.w3.org/Graphics/SVG/1.1/DTD/svg11.dtd">
<svg version="1.1" id="Layer_1" xmlns="http://www.w3.org/2000/svg" xmlns:xlink="http://www.w3.org/1999/xlink" x="0px" y="0px"
	 width="158.068px" height="39.828px" viewBox="0 0 158.068 39.828" enable-background="new 0 0 158.068 39.828"
	 xml:space="preserve">
<g>
	<path fill="#0D4F81" d="M78.78,18.257L68.117,9.782c-0.383-0.31-0.901-0.475-1.394-0.475c-1.237,0.002-2.284,0.985-2.284,2.224
		v9.551h2.531v-8.574l10.71,8.476c0.367,0.294,0.874,0.474,1.37,0.475c1.223-0.001,2.26-0.999,2.26-2.221v-0.001V9.272h-2.53V18.257
		z M83.841,13.017v4.73c0,2.035,1.409,3.334,3.443,3.334h9.461c2.051,0,3.965-1.301,3.965-3.334v-3.414H90.589v2.53h7.592v0.884
		c0,0.272-0.32,0.422-0.514,0.605c-0.193,0.186-0.655,0.197-0.922,0.197h-9.461c-0.553,0-0.913-0.25-0.913-0.803v-4.73
		c0-0.554,0.363-1.215,0.913-1.215h13.426v-2.53H87.284C85.251,9.272,83.841,10.967,83.841,13.017z M59.379,17.746
		c0,0.555-0.283,0.805-0.854,0.805h-9.443c-0.572,0-0.668-0.25-0.668-0.803V9.272h-2.897H45.04v8.476
		c0,2.034,1.991,3.334,4.042,3.334h9.443c2.068,0,3.385-1.301,3.385-3.334V9.272h-2.531V17.746z M144.561,18.55
		c-0.552,0-0.831-0.25-0.831-0.803V9.272h-2.531v8.476c0,2.033,1.328,3.334,3.362,3.334h13.508V18.55H144.561z M102.398,13.017v4.73
		c0,2.035,1.944,3.334,3.979,3.334h9.461c2.051,0,3.43-1.301,3.43-3.334v-3.414h-9.279v2.53h6.749v0.884
		c0,0.272-0.052,0.422-0.246,0.605c-0.192,0.186-0.387,0.197-0.653,0.197h-9.461c-0.553,0-0.605-0.25-0.605-0.803v-4.73
		c0-0.554,0.056-1.215,0.605-1.215h12.891v-2.53h-12.891C104.344,9.272,102.398,10.967,102.398,13.017z M136.138,17.746
		c0,0.555-0.638,0.805-1.208,0.805h-9.444c-0.572,0-1.156-0.25-1.156-0.803V9.272h-2.409h-0.122v8.476
		c0,2.034,1.638,3.334,3.688,3.334h9.444c2.067,0,3.738-1.301,3.738-3.334V9.272h-2.53V17.746z"/>
	<path fill="#5D5E60" d="M130.016,31.477h1.113v-5.568h-1.113V31.477z M119.905,27.021h6.125v-1.113h-6.125
		c-0.915,0-1.67,0.748-1.67,1.67c0,0.924,0.755,1.672,1.67,1.672h4.454c0.303,0,0.557,0.246,0.557,0.555
		c0,0.303-0.254,0.551-0.557,0.551h-6.124v1.121h6.124c0.924,0,1.671-0.756,1.671-1.672c0-0.922-0.747-1.67-1.671-1.67h-4.454
		c-0.302,0-0.557-0.246-0.557-0.557C119.349,27.275,119.604,27.021,119.905,27.021z M106.446,25.908v3.896
		c0,0.916,0.755,1.672,1.678,1.672h4.446c0.932,0,1.68-0.756,1.68-1.672v-3.896h-1.114v3.896c-0.009,0.303-0.255,0.551-0.565,0.551
		h-4.446c-0.309,0-0.557-0.248-0.557-0.551v-3.896H106.446z M96.335,31.477h6.126v-1.121h-6.126c-0.302,0-0.548-0.248-0.548-0.551
		v-3.896h-1.114v3.896C94.673,30.721,95.421,31.477,96.335,31.477z M84.015,29.805v-2.227c0-0.303,0.246-0.557,0.556-0.557h4.447
		c0.317,0,0.564,0.254,0.564,0.557v2.227c0,0.303-0.247,0.551-0.564,0.551H84.57C84.261,30.355,84.015,30.107,84.015,29.805z
		 M90.688,29.805v-2.227c0-0.922-0.74-1.67-1.67-1.67H84.57c-0.922,0-1.67,0.748-1.67,1.67v2.227c0,0.916,0.748,1.672,1.67,1.672
		h4.447C89.947,31.477,90.688,30.721,90.688,29.805z M72.79,27.021h6.125v-1.113H72.79c-0.915,0-1.671,0.748-1.671,1.67
		c0,0.924,0.756,1.672,1.671,1.672h4.454c0.303,0,0.558,0.246,0.558,0.555c0,0.303-0.255,0.551-0.558,0.551h-6.125v1.121h6.125
		c0.923,0,1.671-0.756,1.671-1.672c0-0.922-0.748-1.67-1.671-1.67H72.79c-0.302,0-0.557-0.246-0.557-0.557
		C72.233,27.275,72.488,27.021,72.79,27.021z"/>
	<g>
		<polygon fill="#0D4F81" points="35.768,3.97 38.605,2.628 38.605,5.281 38.605,7.933 35.77,6.622 32.925,5.312 		"/>
		<polygon fill="#326EAB" points="35.776,3.989 32.937,5.326 32.937,2.672 32.937,0.021 35.773,1.331 38.616,2.647 		"/>
		<polygon fill="#0D4F81" points="28.928,3.989 31.773,5.316 28.942,6.641 26.107,7.97 26.093,5.316 26.082,2.66 		"/>
		<polygon fill="#326EAB" points="28.916,4.005 26.07,2.676 28.901,1.35 31.737,0.024 31.749,2.676 31.76,5.33 		"/>
		<polygon fill="#0D4F81" points="35.768,10.4 38.605,9.057 38.611,11.708 38.611,14.361 35.771,13.054 32.927,11.748 		"/>
		<polygon fill="#326EAB" points="35.776,10.418 32.938,11.762 32.937,9.108 32.933,6.456 35.771,7.762 38.616,9.072 		"/>
		<polygon fill="#0D4F81" points="28.911,10.418 31.754,11.756 28.913,13.07 26.074,14.389 26.072,11.736 26.07,9.084 		"/>
		<polygon fill="#326EAB" points="28.9,10.435 26.061,9.097 28.896,7.779 31.733,6.464 31.737,9.117 31.744,11.771 		"/>
		<path fill="#5D5E61" d="M33.535,19.537c0,0.336-0.016,0.667-0.037,0.996c-0.513,7.266-6.565,13-13.962,13
			c-7.396,0-13.45-5.734-13.965-13c-0.021-0.329-0.032-0.66-0.032-0.996V7.004V5.826h18.578V0H12.293H0v5.826v14.707
			c0,10.657,8.639,19.295,19.295,19.295c10.657,0,19.297-8.639,19.297-19.295V16.3h-5.057V19.537z"/>
	</g>
</g>
</svg>
